<svg width="154" height="40" viewBox="0 0 154 40" fill="none" xmlns="http://www.w3.org/2000/svg">
<path d="M119.951 0.891519H128.735V16.0375H130.987L142.529 0.891519H152.664V1.06043L137.969 19.5284L153.565 39.0099V39.1789H143.374L131.043 23.6387H128.735V39.1789H119.951V0.891519Z" fill="white"/>
<path d="M114.761 8.71491C115.122 8.45243 115.203 7.94582 114.926 7.59567C112.4 4.40025 108.953 2.047 105.043 0.860969C100.874 -0.403381 96.4064 -0.272109 92.3192 1.23483C88.2319 2.74177 84.7485 5.54198 82.3982 9.2098C80.048 12.8776 78.9596 17.2125 79.2984 21.5555C79.6372 25.8985 81.3847 30.0121 84.2753 33.2711C87.1659 36.5301 91.0415 38.7562 95.3129 39.6111C99.5844 40.466 104.018 39.9028 107.94 38.0073C111.62 36.2292 114.66 33.3699 116.66 29.8214C116.879 29.4325 116.721 28.9446 116.323 28.7413L110.11 25.5626C109.713 25.3592 109.228 25.5184 108.997 25.9004C107.858 27.7851 106.194 29.3049 104.2 30.2682C101.964 31.3491 99.4355 31.6702 96.9997 31.1827C94.564 30.6953 92.3541 29.4259 90.7058 27.5675C89.0575 25.7092 88.061 23.3635 87.8679 20.887C87.6747 18.4105 88.2953 15.9387 89.6355 13.8472C90.9756 11.7557 92.962 10.1589 95.2926 9.29964C97.6233 8.44035 100.171 8.36549 102.548 9.08646C104.666 9.72901 106.546 10.9724 107.964 12.6576C108.252 12.9991 108.755 13.0812 109.116 12.8187L114.761 8.71491Z" fill="white"/>
<path d="M0 0.891526H33.4451V39.1789H24.6616V8.49269H8.78357V39.1789H0V0.891526Z" fill="white"/>
<path d="M47.6809 2.00204C51.3637 0.217231 55.5124 -0.397566 59.5662 0.251775C63.8865 0.943809 67.8607 3.03347 70.8796 6.20049C73.8984 9.36751 75.7955 13.4372 76.2799 17.7857C76.7643 22.1341 75.8094 26.5214 73.5616 30.2751C71.3137 34.0289 67.8969 36.942 63.8348 38.5679C59.7728 40.1937 55.2896 40.4427 51.0725 39.2766C46.8554 38.1104 43.1371 35.5936 40.4874 32.1118C38.0011 28.8448 36.5846 24.8972 36.4193 20.8081C36.4012 20.362 36.7649 20 37.2112 20H44.1902C44.6365 20 44.9954 20.3623 45.027 20.8076C45.1837 23.0151 45.9802 25.136 47.3275 26.9064C48.8384 28.8918 50.9588 30.327 53.3634 30.9919C55.7681 31.6569 58.3245 31.5149 60.6407 30.5878C61.9177 30.0767 63.0827 29.3424 64.086 28.4278L66.7261 30.345C67.6321 31.0029 68.8852 30.0964 68.4569 29.0111L68.4555 29.0077L66.7614 24.7707C67.6263 22.8928 67.9679 20.8073 67.7373 18.7372C67.461 16.2577 66.3793 13.9371 64.6579 12.1311C62.9364 10.3252 60.6703 9.13367 58.2068 8.73906C56.01 8.38717 53.7644 8.68633 51.7443 9.59041C51.3369 9.77276 50.848 9.62745 50.6372 9.23394L47.3424 3.08159C47.1317 2.6881 47.2792 2.1967 47.6809 2.00204Z" fill="white"/>
<path d="M57.0751 26.704L52.3484 14.8821C52.2265 14.573 52.5779 14.3034 52.8507 14.5014L60.0749 19.7473C60.2993 19.9102 60.6086 19.8648 60.7677 19.6457L62.3951 17.4046C62.5488 17.1929 62.8806 17.2399 62.9784 17.4859L67.7051 29.3078C67.8271 29.617 67.4738 29.889 67.201 29.691L59.9793 24.447C59.755 24.2841 59.4456 24.3294 59.2865 24.5486L57.661 26.7872C57.5047 26.997 57.1729 26.95 57.0751 26.704Z" fill="white"/>
<path d="M0 1.71754C0 1.27116 0.36186 0.909303 0.808237 0.909303H7.98134C8.42772 0.909303 8.78958 1.27116 8.78958 1.71754V38.3913C8.78958 38.8377 8.42772 39.1995 7.98134 39.1995H0.808238C0.36186 39.1995 0 38.8377 0 38.3913V1.71754Z" fill="white"/>
<path d="M24.6512 1.71754C24.6512 1.27116 25.0131 0.909303 25.4595 0.909303H32.6326C33.079 0.909303 33.4408 1.27116 33.4408 1.71754V38.3913C33.4408 38.8377 33.079 39.1995 32.6326 39.1995H25.4595C25.0131 39.1995 24.6512 38.8377 24.6512 38.3913V1.71754Z" fill="white"/>
<path d="M1.0103 9.69888L1.0103 0.909303L31.8243 0.909304V9.69888H1.0103Z" fill="white"/>
<path d="M120.023 1.71754C120.023 1.27116 120.385 0.909303 120.831 0.909303H128.005C128.451 0.909303 128.813 1.27116 128.813 1.71754V38.3913C128.813 38.8377 128.451 39.1995 128.005 39.1995H120.831C120.385 39.1995 120.023 38.8377 120.023 38.3913V1.71754Z" fill="white"/>
<path d="M142.209 1.23009C142.362 1.02805 142.601 0.909303 142.854 0.909303H152.339C152.508 0.909303 152.602 1.10442 152.497 1.23687L137.703 19.9029L128.358 19.5493L142.209 1.23009Z" fill="white"/>
<path d="M143.169 38.8952C143.322 39.0875 143.555 39.1995 143.801 39.1995H153.298C153.467 39.1995 153.561 39.0041 153.456 38.8717L137.451 18.741L128.51 20.5091L143.169 38.8952Z" fill="white"/>
<path d="M126.691 15.8617H136.491V23.641H126.691V15.8617Z" fill="white"/>
</svg>
